<svg width="32" height="24" viewBox="0 0 32 24" fill="none" xmlns="http://www.w3.org/2000/svg" role="img" aria-label="Express InterCity Premium"><path d="M17.1557 6L12.1125 17H14.7256L19.7688 6H17.1557ZM12.0342 12.2376L12.9487 10.2706H7.7226L8.79396 7.96706H14.5166L15.405 6H7.06934L2 17H10.597L11.5115 15.0329H5.5015L6.80803 12.2118H12.0342V12.2376ZM27.5035 9.52C26.9809 11.28 25.9356 12.1082 23.819 12.1082H21.6502L23.5577 7.96706H26.0663C27.216 7.96706 27.7648 8.64 27.5035 9.52ZM26.8502 6H21.8331L16.7638 17H19.3768L20.7356 14.0494H23.7929C27.7909 14.0494 29.3849 11.8494 29.8813 9.62353C30.3778 7.60471 29.3065 6 26.8502 6Z" fill="#142458"></path></svg>
